:SAMPLES-PER-SECOND 30
:FULLY-SPECIFIED
:DEGREES
488
root  -58.2252 34.4525 27.483 -175.867 43.8712 176.141
RightUpLeg  -24.8717 -26.8416 -3.28357
RightLeg  32.8099 -9.22878 -5.11631
RightFoot  -3.84257 0.010786 0.937831
RightToes  -23.2422 -0.100261 -0.202366
Spine  0.662051 0.290751 -1.86915
Spine1  1.28154 0.565123 -2.96701
HEad  -68.3311 -6.07071 -7.67158
LeftShoulder1  -1.94126e-019 -3.10601e-018 -2.51263e-017
LeftArm  -23.3898 26.2536 -71.9867
LeftForeArm  19.5113 -25.2043 -4.30336
LeftHand  -0.340103 2.32624 12.6854
RightShoulder  -4.96962e-017 0 -2.36833e-017
RightArm  -29.2861 -22.5525 79.586
RightForeArm  58.8517 12.3784 1.43596
RightHand  -0.427674 0.392493 -8.66299
LeftUpLeg  -12.3197 1.01125 -5.04206
LeftLeg  17.055 13.4879 3.17143
LeftFoot  -1.71768 -0.00644265 -0.268238
LeftToes  -21.8765 1.9075e-006 4.29692e-008
489
root  -58.1398 34.5258 27.4386 -175.224 44.7821 176.457
RightUpLeg  -24.7688 -26.1295 -1.93139
RightLeg  28.3419 -8.12048 -3.71619
RightFoot  -1.24278 -0.00257034 0.405535
RightToes  -26.1382 -0.118252 -0.22425
Spine  0.428048 0.362119 -1.78115
Spine1  0.803743 0.726663 -2.79389
HEad  -68.9101 -4.73465 -6.85474
LeftShoulder1  -1.94126e-019 -3.10601e-018 -2.51263e-017
LeftArm  -23.9012 27.1874 -72.3688
LeftForeArm  18.271 -26.3416 -4.61904
LeftHand  -0.309734 2.29777 11.4129
RightShoulder  -4.96962e-017 0 -2.36833e-017
RightArm  -26.9555 -21.8532 80.3601
RightForeArm  57.0566 14.2496 1.20886
RightHand  -0.457987 0.661819 -8.88237
LeftUpLeg  -11.9016 1.10965 -4.73927
LeftLeg  15.7592 14.1424 2.99049
LeftFoot  -1.17781 -0.00312956 -0.142941
LeftToes  -21.6742 1.9075e-006 4.29692e-008
490
root  -57.9974 34.5806 27.4268 -174.19 45.8263 177.278
RightUpLeg  -24.4596 -25.2474 -0.194721
RightLeg  24.0558 -5.36737 -1.99315
RightFoot  1.6735 0.00755813 0.0176006
RightToes  -17.7261 -0.0691489 -0.158293
Spine  0.187987 0.460625 -1.63902
Spine1  0.311704 0.940505 -2.52557
HEad  -69.1201 -3.53462 -5.81275
LeftShoulder1  -1.94126e-019 -3.10601e-018 -2.51263e-017
LeftArm  -21.6401 27.6901 -72.5242
LeftForeArm  17.6516 -27.3738 -4.88501
LeftHand  -0.290686 2.27218 10.6002
RightShoulder  -4.96962e-017 0 -2.36833e-017
RightArm  -25.7204 -20.7306 81.1349
RightForeArm  55.8004 15.6942 1.06063
RightHand  -0.480356 0.848114 -9.04892
LeftUpLeg  -11.8837 1.76138 -4.05408
LeftLeg  15.2538 14.4684 2.92652
LeftFoot  -1.01678 -0.00237147 -0.105731
LeftToes  -21.1293 1.9075e-006 4.29692e-008
491
root  -57.8868 34.6057 27.4079 -173.798 46.3853 177.457
RightUpLeg  -23.5807 -22.7929 -0.243617
RightLeg  22.3667 -6.61486 -2.23291
RightFoot  1.86206 0.00932786 -0.0303304
RightToes  -19.976 -0.0813252 -0.176629
Spine  0.0161428 0.3799 -1.6305
Spine1  -0.0334384 0.787861 -2.50061
HEad  -68.9442 -2.48031 -5.09728
LeftShoulder1  -1.94126e-019 -3.10601e-018 -2.51263e-017
LeftArm  -18.319 27.5705 -72.6542
LeftForeArm  18.7379 -27.8862 -4.94156
LeftHand  -0.293418 1.82085 9.39189
RightShoulder  -4.96962e-017 0 -2.36833e-017
RightArm  -24.3989 -19.4737 81.7003
RightForeArm  55.276 17.1683 1.09689
RightHand  -0.515586 1.13646 -9.29849
LeftUpLeg  -11.8383 1.35906 -3.8513
LeftLeg  15.016 15.3807 3.04109
LeftFoot  -0.789912 -0.00273695 -0.0563002
LeftToes  -20.3984 1.9075e-006 4.29692e-008
492
root  -57.7111 34.6349 27.3387 -173.532 46.9951 177.915
RightUpLeg  -22.6379 -21.6253 -0.118784
RightLeg  21.3525 -7.10758 -2.25849
RightFoot  2.2374 0.0124888 -0.0904536
RightToes  -22.4279 -0.0954028 -0.196051
Spine  -0.0800891 0.192195 -1.37097
Spine1  -0.21945 0.406002 -1.96338
HEad  -68.5078 -1.72292 -5.74306
LeftShoulder1  -1.94126e-019 -3.10601e-018 -2.51263e-017
LeftArm  -14.8283 27.3072 -73.4664
LeftForeArm  20.0886 -27.6748 -4.81648
LeftHand  -0.338969 0.874826 8.69453
RightShoulder  -4.96962e-017 0 -2.36833e-017
RightArm  -23.1726 -18.2959 81.5133
RightForeArm  55.6509 19.9583 1.57735
RightHand  -0.540012 1.49811 -9.24952
LeftUpLeg  -11.3151 1.63676 -3.45687
LeftLeg  14.6999 15.7606 3.02531
LeftFoot  -0.680595 -0.00112476 -0.0278592
LeftToes  -19.778 1.9075e-006 4.29692e-008
493
root  -57.4969 34.6713 27.2426 -173.637 47.2891 178.31
RightUpLeg  -21.7477 -21.9436 0.000765361
RightLeg  21.0402 -6.49877 -2.02744
RightFoot  2.57553 0.0126403 -0.109346
RightToes  -23.7663 -0.103434 -0.206393
Spine  0.066662 -0.0894797 -1.271
Spine1  0.0704267 -0.145983 -1.78103
HEad  -69.1619 -1.36987 -6.70879
LeftShoulder1  -1.94126e-019 -3.10601e-018 -2.51263e-017
LeftArm  -12.5949 26.3469 -74.3167
LeftForeArm  21.9873 -28.082 -4.80848
LeftHand  -0.352834 0.409528 8.25104
RightShoulder  -4.96962e-017 0 -2.36833e-017
RightArm  -22.5095 -16.7632 81.4444
RightForeArm  55.2279 22.2112 2.01934
RightHand  -0.503944 1.6356 -8.48469
LeftUpLeg  -10.1445 2.04419 -3.06954
LeftLeg  13.8223 15.8035 2.78675
LeftFoot  -0.406853 -0.000399896 0.0488523
LeftToes  -19.4495 1.9075e-006 4.29692e-008
494
root  -57.2556 34.7154 27.1394 -173.874 47.4781 178.383
RightUpLeg  -21.0432 -22.7391 0.00245718
RightLeg  20.9245 -5.57744 -1.72929
RightFoot  2.68867 0.00955274 -0.0827831
RightToes  -24.7315 -0.106492 -0.213733
Spine  0.166442 -0.417036 -1.03612
Spine1  0.272759 -0.799433 -1.31826
HEad  -69.6202 -1.3264 -8.99971
LeftShoulder1  -1.94126e-019 -3.10601e-018 -2.51263e-017
LeftArm  -10.7064 25.3193 -75.8812
LeftForeArm  20.652 -28.39 -4.95454
LeftHand  -0.358559 0.628874 8.75016
RightShoulder  -4.96962e-017 0 -2.36833e-017
RightArm  -24.6223 -15.2071 81.0708
RightForeArm  54.1501 24.6589 2.54248
RightHand  -0.426171 1.76991 -7.07667
LeftUpLeg  -8.65455 2.25169 -2.86446
LeftLeg  12.1805 15.9027 2.34295
LeftFoot  0.130764 -4.5965e-005 0.202077
LeftToes  -19.2762 1.9075e-006 4.29692e-008
495
root  -56.9633 34.761 27.0544 -173.803 47.6151 178.723
RightUpLeg  -20.0626 -23.363 0.284551
RightLeg  20.1954 -4.87389 -1.44424
RightFoot  2.5862 0.00546189 -0.041772
RightToes  -24.2374 -0.108201 -0.216295
Spine  0.198653 -0.707233 -1.05741
Spine1  0.331456 -1.34923 -1.40988
HEad  -68.4896 -1.68409 -10.1524
LeftShoulder1  -1.94126e-019 -3.10601e-018 -2.51263e-017
LeftArm  -10.7446 24.6658 -76.7354
LeftForeArm  19.6797 -30.357 -5.48047
LeftHand  -0.346169 0.179203 7.75829
RightShoulder  -4.96962e-017 0 -2.36833e-017
RightArm  -26.6962 -13.9606 81.215
RightForeArm  51.2611 25.9177 2.91048
RightHand  -0.351806 1.03651 -6.47699
LeftUpLeg  -7.03595 2.42019 -2.38574
LeftLeg  10.1295 15.9264 1.77481
LeftFoot  0.779332 -0.00151279 0.384033
LeftToes  -20.0373 1.9075e-006 4.29692e-008
496
root  -56.6468 34.789 26.9882 -173.693 47.7016 179.01
RightUpLeg  -18.8975 -23.702 0.59843
RightLeg  18.9669 -4.68644 -1.27988
RightFoot  2.47076 0.00296816 -0.0225317
RightToes  -23.9306 -0.108778 -0.217437
Spine  0.0883188 -0.996833 -0.846834
Spine1  0.104638 -1.92026 -1.00171
HEad  -66.6469 -1.98654 -10.9134
LeftShoulder1  -1.94126e-019 -3.10601e-018 -2.51263e-017
LeftArm  -11.0503 24.4917 -78.0444
LeftForeArm  18.2404 -32.1141 -5.99373
LeftHand  -0.340912 -0.0694614 7.31521
RightShoulder  -4.96962e-017 0 -2.36833e-017
RightArm  -28.0998 -14.0491 80.5058
RightForeArm  48.8577 29.4706 3.76084
RightHand  -0.33896 0.490853 -6.77314
LeftUpLeg  -5.56738 2.73578 -1.88372
LeftLeg  8.23103 15.7265 1.23433
LeftFoot  1.4419 -0.00508935 0.566021
LeftToes  -20.8645 1.9075e-006 4.29692e-008
497
root  -56.3051 34.8208 26.9522 -172.983 47.8022 179.54
RightUpLeg  -17.9325 -23.3843 1.22438
RightLeg  17.344 -4.96338 -1.20477
RightFoot  2.59092 0.00347161 -0.0441248
RightToes  -23.9921 -0.108442 -0.217413
Spine  -0.0961565 -1.06588 -0.727678
Spine1  -0.266177 -2.05268 -0.769863
HEad  -65.718 -2.58178 -10.3683
LeftShoulder1  -1.94126e-019 -3.10601e-018 -2.51263e-017
LeftArm  -11.2237 24.0936 -78.7513
LeftForeArm  17.4142 -34.8027 -6.74233
LeftHand  -0.354339 -0.412527 7.18292
RightShoulder  -4.96962e-017 0 -2.36833e-017
RightArm  -30.0735 -14.6774 79.6638
RightForeArm  46.0392 33.8183 4.88549
RightHand  -0.276541 0.311991 -5.69383
LeftUpLeg  -4.58584 3.19976 -1.23925
LeftLeg  6.43362 15.625 0.740824
LeftFoot  2.06485 -0.0103292 0.73474
LeftToes  -21.6371 1.9075e-006 4.29692e-008
498
root  -55.9407 34.8596 26.9369 -171.945 47.6056 -179.78
RightUpLeg  -16.9405 -22.0141 1.90074
RightLeg  15.5151 -6.32069 -1.32029
RightFoot  2.83568 0.00853865 -0.127996
RightToes  -24.1339 -0.10741 -0.216479
Spine  -0.396688 -1.18573 -0.451499
Spine1  -0.868073 -2.29196 -0.210524
HEad  -65.2877 -2.716 -9.70975
LeftShoulder1  -1.94126e-019 -3.10601e-018 -2.51263e-017
LeftArm  -11.8161 23.9149 -79.2878
LeftForeArm  17.0337 -38.6143 -7.84913
LeftHand  -0.362393 -0.569501 7.16497
RightShoulder  -4.96962e-017 0 -2.36833e-017
RightArm  -31.3789 -15.6949 78.0901
RightForeArm  44.825 38.819 6.22688
RightHand  -0.263807 0.479802 -5.2941
LeftUpLeg  -4.16478 3.34756 -0.328412
LeftLeg  5.38076 15.1191 0.442514
LeftFoot  2.50113 -0.0143172 0.83093
LeftToes  -22.4082 1.9075e-006 4.29692e-008
499
root  -55.5721 34.894 26.9113 -170.945 47.0559 -179.018
RightUpLeg  -15.756 -20.8124 2.61827
RightLeg  13.5501 -7.93834 -1.37405
RightFoot  3.16771 0.0164033 -0.247973
RightToes  -24.3543 -0.1059 -0.214887
Spine  -0.615121 -1.22814 -0.171005
Spine1  -1.29903 -2.35511 0.334682
HEad  -65.1683 -2.68606 -8.80731
LeftShoulder1  -1.94126e-019 -3.10601e-018 -2.51263e-017
LeftArm  -11.9329 23.651 -79.1269
LeftForeArm  17.2157 -44.7246 -9.87733
LeftHand  -0.363885 -0.196738 7.63991
RightShoulder  -4.96962e-017 0 -2.36833e-017
RightArm  -32.1561 -16.9854 75.8883
RightForeArm  43.6218 45.3458 8.27846
RightHand  -0.223551 0.0996057 -4.7672
LeftUpLeg  -4.11253 2.78293 0.588457
LeftLeg  5.20162 15.2366 0.398792
LeftFoot  2.46988 -0.0143233 0.825996
LeftToes  -22.5862 1.9075e-006 4.29692e-008
500
root  -55.2158 34.9153 26.8951 -170.134 46.1186 -178.29
RightUpLeg  -14.3853 -20.7363 3.3965
RightLeg  11.409 -8.8427 -1.19196
RightFoot  3.48491 0.0228448 -0.34279
RightToes  -24.3448 -0.104129 -0.212894
Spine  -0.743091 -1.2847 0.138605
Spine1  -1.54536 -2.43538 0.926795
HEad  -65.5104 -2.19925 -7.98762
LeftShoulder1  -1.94126e-019 -3.10601e-018 -2.51263e-017
LeftArm  -12.1697 23.0113 -78.4472
LeftForeArm  18.2639 -52.2574 -13.0901
LeftHand  -0.419863 -0.0856111 8.97676
RightShoulder  -4.96962e-017 0 -2.36833e-017
RightArm  -33.48 -17.7923 73.3383
RightForeArm  43.6492 52.6513 11.1664
RightHand  -0.169136 -0.832984 -4.23375
LeftUpLeg  -4.70311 2.10613 1.5142
LeftLeg  6.4641 15.2179 0.729979
LeftFoot  1.86661 -0.00811812 0.659899
LeftToes  -22.7838 1.9075e-006 4.29692e-008
501
root  -54.882 34.9122 26.8859 -169.375 44.8374 -177.578
RightUpLeg  -13.3167 -22.2832 4.37152
RightLeg  9.64945 -8.64616 -0.897244
RightFoot  3.59711 0.0233515 -0.347009
RightToes  -24.267 -0.102316 -0.210754
Spine  -0.84316 -1.34125 0.468209
Spine1  -1.7286 -2.49954 1.54219
HEad  -65.9767 -1.4666 -7.20969
LeftShoulder1  -1.94126e-019 -3.10601e-018 -2.51263e-017
LeftArm  -12.5193 21.547 -77.2892
LeftForeArm  21.622 -60.2789 -18.0171
LeftHand  -0.420515 0.224095 9.50092
RightShoulder  -4.96962e-017 0 -2.36833e-017
RightArm  -36.2255 -18.2663 70.8471
RightForeArm  43.7826 61.0783 16.1801
RightHand  -0.0733632 -2.7618 -2.6446
LeftUpLeg  -6.07926 1.01555 2.55485
LeftLeg  9.23997 14.9861 1.44021
LeftFoot  0.743902 -0.00122306 0.349995
LeftToes  -22.5324 1.9075e-006 4.29692e-008
502
root  -54.5401 34.8832 26.8461 -168.949 44.0676 -177.011
RightUpLeg  -12.3127 -22.9053 4.99606
RightLeg  8.64836 -8.62394 -0.743444
RightFoot  3.40487 0.0218161 -0.315324
RightToes  -24.071 -0.100678 -0.208721
Spine  -0.861855 -1.17409 0.772195
Spine1  -1.72572 -2.09123 2.07354
HEad  -66.7935 -0.47507 -6.15774
LeftShoulder1  -1.94126e-019 -3.10601e-018 -2.51263e-017
LeftArm  -13.4751 18.7846 -76.2252
LeftForeArm  26.7465 -67.1804 -25.0433
LeftHand  -0.414048 0.546578 9.94715
RightShoulder  -4.96962e-017 0 -2.36833e-017
RightArm  -41.6123 -17.5679 68.9272
RightForeArm  47.3312 68.9585 24.3636
RightHand  -0.0238254 -3.91975 -0.20334
LeftUpLeg  -7.48978 0.607075 3.35296
LeftLeg  12.6435 14.8454 2.31201
LeftFoot  -0.415897 -0.000451583 0.0370662
LeftToes  -22.3897 1.9075e-006 4.29692e-008
